<svg id="レイヤー_1" data-name="レイヤー 1" xmlns="http://www.w3.org/2000/svg" viewBox="0 0 512 512"><defs><style>.cls-1{fill:#067b7b;}.cls-2{fill:#fff;}</style></defs><title>cxi_20191105_1250</title><rect class="cls-1" width="512" height="512" rx="180"/><path class="cls-2" d="M126.84,68.32a212.11,212.11,0,0,1,30.25-24.48c17-11.44,48.49-9.18,59,7.2,4.91,7.61,6.49,20.13,1.44,28.8-5.58,9.6-17.5,11.48-17.28,18.73.1,3.39,2.8,5.83,4.32,7.2,5.11,4.62,11.74,4.65,28.81,4.32,18.53-.36,20.59-.59,23,1.44,6.85,5.66,7.33,21.05,0,28.81-6,6.34-15.24,5.52-28.8,4.32-10.89-1-19.06-1.68-27.37-7.2-7.59-5-12-11.88-20.17-11.52a15.85,15.85,0,0,0-5.76,1.44c-7.49,3.16-15.89,10.58-28.8,37.45-8.46,17.58-8,20.87-7.21,23,3.11,8.81,15.22,11.86,25.93,14.41,27.2,6.47,30.55,5.22,49.71,11.72,3.24,1.1,19.48,9.56,26,26,9.57,24.12-8.19,44.37-12.33,50.14C194,337,106.14,357.55,62,332c-19-11-31.13-37-33.1-60.59-1.46-17.4,8.85-37,18.72-37.45,10.55-.48,18.22,15.24,23.38,26,5.26,11,11.65,25.25,16,30,11,12,27.9,15.86,48.48,11.66,19.08-3.89,46.78-23.25,45.52-38.66-1-12.28-14-19-33-26-25.19-9.28-42.43-1.77-62-15-6.85-4.63-8.88-10.78-12.45-22.6-4.76-15.76,3-35.59,14.4-47.54,9.23-9.68,19.93-13.24,23-25.92.6-2.45,1.45-6.13,0-10.09-2.66-7.22-10.6-8.87-23-14.4-15.74-7-24.19-10.75-28.81-18.72C54,73.89,53.78,60.12,60.58,53.92,69,46.27,87.2,50.87,98,58.24c9.51,6.47,14,15.52,21.61,14.4C123.18,72.13,125.48,69.71,126.84,68.32Z"/><path class="cls-2" d="M329.45,255.13c-17.61-3.08-39,25-45.45,39.87-11.36,26.41-14,56.61-14,77,0,28,15.92,55.12,35,66,13.64,7.78,35.88,4.22,48-2,8.46-4.34,16-15,18-26,1-5.57-1-20.35-7-21-9.11-1-14.45,13.37-26,14,0,0-11.83,3.78-18.63-.95-13.89-9.68-15.8-39-5.76-60.5,11.93-25.5,33.4-24.21,37.45-44.65C354.54,279.32,342.8,257.46,329.45,255.13Z"/><path class="cls-2" d="M439,333.23c-3.95,4.06,11.91,18.52,10,38.77-1.43,15.16-8.51,21.11-6,32,2.23,9.66,15.26,23.78,25,22,14.17-2.59,27.25-26,26-41-2.32-27.74-38.84-46.89-44.07-49.44C446.81,334,440.94,331.24,439,333.23Z"/></svg>